<svg width="112" height="30" viewBox="0 0 112 30" fill="none" xmlns="http://www.w3.org/2000/svg">
<path d="M93.804 27V3.72727H109.486V7.78409H98.7244V13.3295H108.679V17.3864H98.7244V22.9432H109.531V27H93.804Z" fill="#181717"/>
<path d="M75.1477 27V3.72727H80.0682V22.9432H90.0454V27H75.1477Z" fill="#181717"/>
<path d="M52.5852 27V3.72727H57.5057V13.9886H57.8125L66.1875 3.72727H72.0852L63.4488 14.1477L72.1875 27H66.3011L59.9261 17.4318L57.5057 20.3864V27H52.5852Z" fill="#181717"/>
<path d="M29.8239 7.78409V3.72727H48.9375V7.78409H41.8125V27H36.9489V7.78409H29.8239Z" fill="#181717"/>
<path d="M26.1619 3.72727V27H21.2415V3.72727H26.1619Z" fill="#181717"/>
<path d="M2.02271 27V3.72727H17.4318V7.78409H6.94316V13.3295H16.4091V17.3864H6.94316V27H2.02271Z" fill="#181717"/>
</svg>
