<svg width="55" height="29" viewBox="0 0 55 29" fill="none" xmlns="http://www.w3.org/2000/svg">
<path d="M30.323 9.64888V6.30666H48.6696V4.42222H30.323V0.973328H53.1496V11.4978H48.6696V9.64888H30.323ZM54.8207 15.1955H28.6519V11.7467H54.8207V15.1955ZM53.5407 25.1511V28.1022H30.2874V21.0978H48.8119V19.6756H30.2163V16.7244H53.2207V23.6933H34.6963V25.1511H53.5407Z" fill="#1A1919"/>
<path d="M20.3333 19.6756V0.902222H24.8489V19.6756H20.3333ZM18.9467 15.4089C18.2356 15.717 17.2281 15.9659 15.9244 16.1556C14.6207 16.3452 13.2459 16.44 11.8 16.44H0.315552V12.5644H3.01777V5.20444H0.49333V1.32889H18.0578V5.20444H15.4267V12.4222C16.9437 12.2326 18.117 11.9481 18.9467 11.5689V15.4089ZM11.16 12.5644V5.20444H7.28444V12.5644H9.27555H11.16ZM13.1511 24.1556C11.7052 25.4356 9.98666 26.4074 7.99555 27.0711C6.00444 27.7585 3.91851 28.1022 1.73777 28.1022V23.7289C4.29777 23.7289 6.53777 23.1837 8.45777 22.0933C10.4015 21.003 11.6341 19.4978 12.1556 17.5778L16.6356 18.4667C16.3985 19.3674 16.1141 20.1378 15.7822 20.7778L25.9867 24.2622L24.4578 28.4578L13.1511 24.1556Z" fill="#1A1919"/>
</svg>
