<svg width="55" height="29" viewBox="0 0 55 29" fill="none" xmlns="http://www.w3.org/2000/svg">
<path d="M30.4296 9.29332V6.37777H49.1674V4.0311H30.4296V1.04443H53.0074V11.4267H49.1674V9.29332H30.4296ZM54.7496 14.9822H28.6874V12.0311H54.7496V14.9822ZM53.4696 25.4V27.9955H30.394V21.24H49.3096V19.4622H30.3229V16.9022H53.114V23.5867H34.1985V25.4H53.4696Z" fill="#1A1919"/>
<path d="M20.7955 19.7111V0.902222H24.6355V19.7111H20.7955ZM19.1955 15.1956C18.437 15.5511 17.3703 15.8356 15.9955 16.0489C14.6207 16.2385 13.1155 16.3333 11.48 16.3333H0.351074V12.9556H3.3733V4.77778H0.493296V1.43555H18.1644V4.77778H15.2489V12.8133C17.0029 12.5763 18.3185 12.2563 19.1955 11.8533V15.1956ZM9.4533 12.9556C10.4014 12.9556 11.1126 12.9437 11.5866 12.92V4.77778H7.03552V12.9556H9.4533ZM13.1511 23.7644C11.7526 25.1156 10.0577 26.1585 8.06663 26.8933C6.07552 27.6281 4.0133 27.9956 1.87996 27.9956V24.2622C3.53922 24.2385 5.10367 23.9659 6.5733 23.4444C8.06663 22.923 9.33478 22.1644 10.3777 21.1689C11.4207 20.1733 12.12 18.9763 12.4755 17.5778L16.3155 18.3244C16.1022 19.2726 15.794 20.1141 15.3911 20.8489L25.8089 24.7956L24.4222 28.3511L13.1511 23.7644Z" fill="#1A1919"/>
</svg>
